<svg xmlns="http://www.w3.org/2000/svg" viewBox="0 0 760 380" font-family="sans-serif" font-size="11">
<rect x="0" y="0" width="760" height="380" fill="#ffffff"/>
<rect x="55" y="20" width="615" height="320" fill="none" stroke="#ccc"/>
<line x1="55" y1="128.4" x2="670" y2="128.4" stroke="#c9a227" stroke-dasharray="4,3" stroke-width="1"/>
<text x="675" y="131.4" fill="#c9a227">水防団待機水位 4.00m</text>
<line x1="55" y1="102.0" x2="670" y2="102.0" stroke="#e08a1e" stroke-dasharray="4,3" stroke-width="1"/>
<text x="675" y="105.0" fill="#e08a1e">氾濫注意水位 4.50m</text>
<line x1="55" y1="65.0" x2="670" y2="65.0" stroke="#d94f2b" stroke-dasharray="4,3" stroke-width="1"/>
<text x="675" y="68.0" fill="#d94f2b">避難判断水位 5.20m</text>
<line x1="55" y1="41.2" x2="670" y2="41.2" stroke="#c0392b" stroke-dasharray="4,3" stroke-width="1"/>
<text x="675" y="44.2" fill="#c0392b">氾濫危険水位 5.65m</text>
<line x1="547.0" y1="20" x2="547.0" y2="340" stroke="#888" stroke-dasharray="2,3" stroke-width="1"/>
<text x="550.0" y="32" fill="#888">現在</text>
<line x1="55.0" y1="340" x2="55.0" y2="344" stroke="#666"/>
<text x="55.0" y="356" text-anchor="middle" fill="#333">09/30 23:11</text>
<line x1="157.5" y1="340" x2="157.5" y2="344" stroke="#666"/>
<text x="157.5" y="356" text-anchor="middle" fill="#333">10/01 01:41</text>
<line x1="260.0" y1="340" x2="260.0" y2="344" stroke="#666"/>
<text x="260.0" y="356" text-anchor="middle" fill="#333">10/01 04:11</text>
<line x1="362.5" y1="340" x2="362.5" y2="344" stroke="#666"/>
<text x="362.5" y="356" text-anchor="middle" fill="#333">10/01 06:41</text>
<line x1="465.0" y1="340" x2="465.0" y2="344" stroke="#666"/>
<text x="465.0" y="356" text-anchor="middle" fill="#333">10/01 09:11</text>
<line x1="567.5" y1="340" x2="567.5" y2="344" stroke="#666"/>
<text x="567.5" y="356" text-anchor="middle" fill="#333">10/01 11:41</text>
<line x1="670.0" y1="340" x2="670.0" y2="344" stroke="#666"/>
<text x="670.0" y="356" text-anchor="middle" fill="#333">10/01 14:11</text>
<line x1="51" y1="340.0" x2="55" y2="340.0" stroke="#666"/>
<text x="47" y="343.0" text-anchor="end" fill="#333">0.0</text>
<line x1="51" y1="276.0" x2="55" y2="276.0" stroke="#666"/>
<text x="47" y="279.0" text-anchor="end" fill="#333">1.2</text>
<line x1="51" y1="212.0" x2="55" y2="212.0" stroke="#666"/>
<text x="47" y="215.0" text-anchor="end" fill="#333">2.4</text>
<line x1="51" y1="148.0" x2="55" y2="148.0" stroke="#666"/>
<text x="47" y="151.0" text-anchor="end" fill="#333">3.6</text>
<line x1="51" y1="84.0" x2="55" y2="84.0" stroke="#666"/>
<text x="47" y="87.0" text-anchor="end" fill="#333">4.8</text>
<line x1="51" y1="20.0" x2="55" y2="20.0" stroke="#666"/>
<text x="47" y="23.0" text-anchor="end" fill="#333">6.1</text>
<polyline points="381.9,202.5 388.8,200.4 395.6,200.9 402.4,198.8 409.3,198.2 416.1,198.2 422.9,197.2 429.8,197.7 436.6,198.2 443.4,197.7 450.3,198.8 457.1,199.8 463.9,201.4 470.8,200.9 477.6,202.5 484.4,203.5 491.3,204.6 498.1,206.2 504.9,207.2 511.8,210.4 518.6,209.4 525.4,212.0 532.3,212.5 539.1,214.6" fill="none" stroke="#1a1a1a" stroke-width="2"/>
<circle cx="539.1" cy="214.6" r="3.5" fill="#1a1a1a"/>
<text x="545.1" y="208.6" fill="#1a1a1a">2.37m</text>
<rect x="63" y="28" width="280" height="82" fill="#ffffff" fill-opacity="0.9" stroke="#ccc"/>
<text x="69" y="42" fill="#333" font-weight="bold">到達予想</text>
<text x="69" y="57" fill="#888">水防団待機水位: 見込みなし</text>
<text x="69" y="72" fill="#888">氾濫注意水位: 見込みなし</text>
<text x="69" y="87" fill="#888">避難判断水位: 見込みなし</text>
<text x="69" y="102" fill="#888">氾濫危険水位: 見込みなし</text>
<text x="55" y="374" fill="#666">実線: 実測水位　破線+帯: 予想（不確実性幅、降雨予報:Open-Meteo https://open-meteo.com/）　凡例の水平線: 警戒水位</text>
</svg>