<svg xmlns="http://www.w3.org/2000/svg" viewBox="0 0 760 380" font-family="sans-serif" font-size="11">
<rect x="0" y="0" width="760" height="380" fill="#ffffff"/>
<rect x="55" y="20" width="615" height="320" fill="none" stroke="#ccc"/>
<line x1="55" y1="128.4" x2="670" y2="128.4" stroke="#c9a227" stroke-dasharray="4,3" stroke-width="1"/>
<text x="675" y="131.4" fill="#c9a227">水防団待機水位 4.00m</text>
<line x1="55" y1="102.0" x2="670" y2="102.0" stroke="#e08a1e" stroke-dasharray="4,3" stroke-width="1"/>
<text x="675" y="105.0" fill="#e08a1e">氾濫注意水位 4.50m</text>
<line x1="55" y1="65.0" x2="670" y2="65.0" stroke="#d94f2b" stroke-dasharray="4,3" stroke-width="1"/>
<text x="675" y="68.0" fill="#d94f2b">避難判断水位 5.20m</text>
<line x1="55" y1="41.2" x2="670" y2="41.2" stroke="#c0392b" stroke-dasharray="4,3" stroke-width="1"/>
<text x="675" y="44.2" fill="#c0392b">氾濫危険水位 5.65m</text>
<line x1="547.0" y1="20" x2="547.0" y2="340" stroke="#888" stroke-dasharray="2,3" stroke-width="1"/>
<text x="550.0" y="32" fill="#888">現在</text>
<line x1="55.0" y1="340" x2="55.0" y2="344" stroke="#666"/>
<text x="55.0" y="356" text-anchor="middle" fill="#333">09/25 15:05</text>
<line x1="157.5" y1="340" x2="157.5" y2="344" stroke="#666"/>
<text x="157.5" y="356" text-anchor="middle" fill="#333">09/25 17:35</text>
<line x1="260.0" y1="340" x2="260.0" y2="344" stroke="#666"/>
<text x="260.0" y="356" text-anchor="middle" fill="#333">09/25 20:05</text>
<line x1="362.5" y1="340" x2="362.5" y2="344" stroke="#666"/>
<text x="362.5" y="356" text-anchor="middle" fill="#333">09/25 22:35</text>
<line x1="465.0" y1="340" x2="465.0" y2="344" stroke="#666"/>
<text x="465.0" y="356" text-anchor="middle" fill="#333">09/26 01:05</text>
<line x1="567.5" y1="340" x2="567.5" y2="344" stroke="#666"/>
<text x="567.5" y="356" text-anchor="middle" fill="#333">09/26 03:35</text>
<line x1="670.0" y1="340" x2="670.0" y2="344" stroke="#666"/>
<text x="670.0" y="356" text-anchor="middle" fill="#333">09/26 06:05</text>
<line x1="51" y1="340.0" x2="55" y2="340.0" stroke="#666"/>
<text x="47" y="343.0" text-anchor="end" fill="#333">0.0</text>
<line x1="51" y1="276.0" x2="55" y2="276.0" stroke="#666"/>
<text x="47" y="279.0" text-anchor="end" fill="#333">1.2</text>
<line x1="51" y1="212.0" x2="55" y2="212.0" stroke="#666"/>
<text x="47" y="215.0" text-anchor="end" fill="#333">2.4</text>
<line x1="51" y1="148.0" x2="55" y2="148.0" stroke="#666"/>
<text x="47" y="151.0" text-anchor="end" fill="#333">3.6</text>
<line x1="51" y1="84.0" x2="55" y2="84.0" stroke="#666"/>
<text x="47" y="87.0" text-anchor="end" fill="#333">4.8</text>
<line x1="51" y1="20.0" x2="55" y2="20.0" stroke="#666"/>
<text x="47" y="23.0" text-anchor="end" fill="#333">6.1</text>
<polygon points="536.4,205.7 546.6,205.7 556.9,204.4 567.1,204.4 577.4,204.4 587.6,204.4 597.9,204.4 608.1,204.4 618.4,204.4 628.6,204.4 638.9,204.4 649.1,204.4 659.4,204.4 659.4,197.9 649.1,198.6 638.9,199.3 628.6,199.7 618.4,200.2 608.1,200.7 597.9,201.1 587.6,201.6 577.4,202.1 567.1,202.5 556.9,203.0 546.6,205.2 536.4,205.7" fill="#2e7dd7" fill-opacity="0.12" stroke="none"/>
<polyline points="536.4,205.7 546.6,205.7 556.9,203.9 567.1,203.9 577.4,203.9 587.6,203.9 597.9,203.9 608.1,203.9 618.4,203.9 628.6,203.9 638.9,203.9 649.1,203.7 659.4,203.5" fill="none" stroke="#2e7dd7" stroke-width="1.5" stroke-dasharray="5,3"/>
<polyline points="379.2,245.3 386.0,245.9 392.9,245.9 399.7,243.2 406.5,242.7 413.4,240.0 420.2,240.0 427.0,236.9 433.9,236.9 440.7,234.7 447.5,231.6 454.4,230.5 461.2,227.9 468.0,226.8 474.9,223.6 481.7,221.5 488.5,217.3 495.4,216.8 502.2,212.5 509.0,212.0 515.9,209.9 522.7,207.8 529.5,208.3 536.4,205.7" fill="none" stroke="#1a1a1a" stroke-width="2"/>
<circle cx="536.4" cy="205.7" r="3.5" fill="#1a1a1a"/>
<text x="542.4" y="199.7" fill="#1a1a1a">2.54m</text>
<rect x="63" y="28" width="280" height="82" fill="#ffffff" fill-opacity="0.9" stroke="#ccc"/>
<text x="69" y="42" fill="#333" font-weight="bold">到達予想</text>
<text x="69" y="57" fill="#888">水防団待機水位: 3時間以内は未達予定(ピーク2.69m)</text>
<text x="69" y="72" fill="#888">氾濫注意水位: 3時間以内は未達予定(ピーク2.69m)</text>
<text x="69" y="87" fill="#888">避難判断水位: 3時間以内は未達予定(ピーク2.69m)</text>
<text x="69" y="102" fill="#888">氾濫危険水位: 3時間以内は未達予定(ピーク2.69m)</text>
<text x="55" y="374" fill="#666">実線: 実測水位　破線+帯: 予想（不確実性幅、降雨予報:Open-Meteo https://open-meteo.com/）　凡例の水平線: 警戒水位</text>
</svg>