<svg xmlns="http://www.w3.org/2000/svg" viewBox="0 0 760 380" font-family="sans-serif" font-size="11">
<rect x="0" y="0" width="760" height="380" fill="#ffffff"/>
<rect x="55" y="20" width="615" height="320" fill="none" stroke="#ccc"/>
<line x1="55" y1="128.4" x2="670" y2="128.4" stroke="#c9a227" stroke-dasharray="4,3" stroke-width="1"/>
<text x="675" y="131.4" fill="#c9a227">水防団待機水位 4.00m</text>
<line x1="55" y1="102.0" x2="670" y2="102.0" stroke="#e08a1e" stroke-dasharray="4,3" stroke-width="1"/>
<text x="675" y="105.0" fill="#e08a1e">氾濫注意水位 4.50m</text>
<line x1="55" y1="65.0" x2="670" y2="65.0" stroke="#d94f2b" stroke-dasharray="4,3" stroke-width="1"/>
<text x="675" y="68.0" fill="#d94f2b">避難判断水位 5.20m</text>
<line x1="55" y1="41.2" x2="670" y2="41.2" stroke="#c0392b" stroke-dasharray="4,3" stroke-width="1"/>
<text x="675" y="44.2" fill="#c0392b">氾濫危険水位 5.65m</text>
<line x1="547.0" y1="20" x2="547.0" y2="340" stroke="#888" stroke-dasharray="2,3" stroke-width="1"/>
<text x="550.0" y="32" fill="#888">現在</text>
<line x1="55.0" y1="340" x2="55.0" y2="344" stroke="#666"/>
<text x="55.0" y="356" text-anchor="middle" fill="#333">10/09 02:35</text>
<line x1="157.5" y1="340" x2="157.5" y2="344" stroke="#666"/>
<text x="157.5" y="356" text-anchor="middle" fill="#333">10/09 05:05</text>
<line x1="260.0" y1="340" x2="260.0" y2="344" stroke="#666"/>
<text x="260.0" y="356" text-anchor="middle" fill="#333">10/09 07:35</text>
<line x1="362.5" y1="340" x2="362.5" y2="344" stroke="#666"/>
<text x="362.5" y="356" text-anchor="middle" fill="#333">10/09 10:05</text>
<line x1="465.0" y1="340" x2="465.0" y2="344" stroke="#666"/>
<text x="465.0" y="356" text-anchor="middle" fill="#333">10/09 12:35</text>
<line x1="567.5" y1="340" x2="567.5" y2="344" stroke="#666"/>
<text x="567.5" y="356" text-anchor="middle" fill="#333">10/09 15:05</text>
<line x1="670.0" y1="340" x2="670.0" y2="344" stroke="#666"/>
<text x="670.0" y="356" text-anchor="middle" fill="#333">10/09 17:35</text>
<line x1="51" y1="340.0" x2="55" y2="340.0" stroke="#666"/>
<text x="47" y="343.0" text-anchor="end" fill="#333">0.0</text>
<line x1="51" y1="276.0" x2="55" y2="276.0" stroke="#666"/>
<text x="47" y="279.0" text-anchor="end" fill="#333">1.2</text>
<line x1="51" y1="212.0" x2="55" y2="212.0" stroke="#666"/>
<text x="47" y="215.0" text-anchor="end" fill="#333">2.4</text>
<line x1="51" y1="148.0" x2="55" y2="148.0" stroke="#666"/>
<text x="47" y="151.0" text-anchor="end" fill="#333">3.6</text>
<line x1="51" y1="84.0" x2="55" y2="84.0" stroke="#666"/>
<text x="47" y="87.0" text-anchor="end" fill="#333">4.8</text>
<line x1="51" y1="20.0" x2="55" y2="20.0" stroke="#666"/>
<text x="47" y="23.0" text-anchor="end" fill="#333">6.1</text>
<polygon points="543.3,209.4 553.5,207.0 563.8,204.6 574.0,202.3 584.3,199.9 594.5,197.5 604.8,195.2 615.0,192.8 625.3,190.4 635.5,188.1 645.8,185.7 656.0,183.4 666.3,181.0 666.3,171.8 656.0,174.9 645.8,178.0 635.5,181.2 625.3,184.3 615.0,187.4 604.8,190.6 594.5,193.7 584.3,196.8 574.0,200.0 563.8,203.1 553.5,206.2 543.3,209.4" fill="#2e7dd7" fill-opacity="0.12" stroke="none"/>
<polyline points="543.3,209.4 553.5,206.6 563.8,203.9 574.0,201.1 584.3,198.4 594.5,195.6 604.8,192.9 615.0,190.1 625.3,187.4 635.5,184.6 645.8,181.9 656.0,179.1 666.3,176.4" fill="none" stroke="#2e7dd7" stroke-width="1.5" stroke-dasharray="5,3"/>
<polyline points="386.1,255.4 392.9,253.8 399.8,252.7 406.6,249.6 413.4,249.6 420.3,248.0 427.1,246.4 433.9,243.7 440.8,242.7 447.6,240.6 454.4,238.4 461.3,235.8 468.1,231.6 474.9,230.5 481.8,228.4 488.6,226.3 495.4,224.7 502.3,221.0 509.1,219.4 515.9,216.2 522.8,215.2 529.6,212.5 536.4,213.1 543.3,209.4" fill="none" stroke="#1a1a1a" stroke-width="2"/>
<circle cx="543.3" cy="209.4" r="3.5" fill="#1a1a1a"/>
<text x="549.3" y="203.4" fill="#1a1a1a">2.47m</text>
<rect x="63" y="28" width="280" height="82" fill="#ffffff" fill-opacity="0.9" stroke="#ccc"/>
<text x="69" y="42" fill="#333" font-weight="bold">到達予想</text>
<text x="69" y="57" fill="#888">水防団待機水位: 3時間以内は未達予定(ピーク3.18m)</text>
<text x="69" y="72" fill="#888">氾濫注意水位: 3時間以内は未達予定(ピーク3.18m)</text>
<text x="69" y="87" fill="#888">避難判断水位: 3時間以内は未達予定(ピーク3.18m)</text>
<text x="69" y="102" fill="#888">氾濫危険水位: 3時間以内は未達予定(ピーク3.18m)</text>
<text x="55" y="374" fill="#666">実線: 実測水位　破線+帯: 予想（不確実性幅、降雨予報:Open-Meteo https://open-meteo.com/）　凡例の水平線: 警戒水位</text>
</svg>