<svg xmlns="http://www.w3.org/2000/svg" viewBox="0 0 760 380" font-family="sans-serif" font-size="11">
<rect x="0" y="0" width="760" height="380" fill="#ffffff"/>
<rect x="55" y="20" width="615" height="320" fill="none" stroke="#ccc"/>
<line x1="55" y1="128.4" x2="670" y2="128.4" stroke="#c9a227" stroke-dasharray="4,3" stroke-width="1"/>
<text x="675" y="131.4" fill="#c9a227">水防団待機水位 4.00m</text>
<line x1="55" y1="102.0" x2="670" y2="102.0" stroke="#e08a1e" stroke-dasharray="4,3" stroke-width="1"/>
<text x="675" y="105.0" fill="#e08a1e">氾濫注意水位 4.50m</text>
<line x1="55" y1="65.0" x2="670" y2="65.0" stroke="#d94f2b" stroke-dasharray="4,3" stroke-width="1"/>
<text x="675" y="68.0" fill="#d94f2b">避難判断水位 5.20m</text>
<line x1="55" y1="41.2" x2="670" y2="41.2" stroke="#c0392b" stroke-dasharray="4,3" stroke-width="1"/>
<text x="675" y="44.2" fill="#c0392b">氾濫危険水位 5.65m</text>
<line x1="547.0" y1="20" x2="547.0" y2="340" stroke="#888" stroke-dasharray="2,3" stroke-width="1"/>
<text x="550.0" y="32" fill="#888">現在</text>
<line x1="55.0" y1="340" x2="55.0" y2="344" stroke="#666"/>
<text x="55.0" y="356" text-anchor="middle" fill="#333">09/28 02:55</text>
<line x1="157.5" y1="340" x2="157.5" y2="344" stroke="#666"/>
<text x="157.5" y="356" text-anchor="middle" fill="#333">09/28 05:25</text>
<line x1="260.0" y1="340" x2="260.0" y2="344" stroke="#666"/>
<text x="260.0" y="356" text-anchor="middle" fill="#333">09/28 07:55</text>
<line x1="362.5" y1="340" x2="362.5" y2="344" stroke="#666"/>
<text x="362.5" y="356" text-anchor="middle" fill="#333">09/28 10:25</text>
<line x1="465.0" y1="340" x2="465.0" y2="344" stroke="#666"/>
<text x="465.0" y="356" text-anchor="middle" fill="#333">09/28 12:55</text>
<line x1="567.5" y1="340" x2="567.5" y2="344" stroke="#666"/>
<text x="567.5" y="356" text-anchor="middle" fill="#333">09/28 15:25</text>
<line x1="670.0" y1="340" x2="670.0" y2="344" stroke="#666"/>
<text x="670.0" y="356" text-anchor="middle" fill="#333">09/28 17:55</text>
<line x1="51" y1="340.0" x2="55" y2="340.0" stroke="#666"/>
<text x="47" y="343.0" text-anchor="end" fill="#333">0.0</text>
<line x1="51" y1="276.0" x2="55" y2="276.0" stroke="#666"/>
<text x="47" y="279.0" text-anchor="end" fill="#333">1.2</text>
<line x1="51" y1="212.0" x2="55" y2="212.0" stroke="#666"/>
<text x="47" y="215.0" text-anchor="end" fill="#333">2.4</text>
<line x1="51" y1="148.0" x2="55" y2="148.0" stroke="#666"/>
<text x="47" y="151.0" text-anchor="end" fill="#333">3.6</text>
<line x1="51" y1="84.0" x2="55" y2="84.0" stroke="#666"/>
<text x="47" y="87.0" text-anchor="end" fill="#333">4.8</text>
<line x1="51" y1="20.0" x2="55" y2="20.0" stroke="#666"/>
<text x="47" y="23.0" text-anchor="end" fill="#333">6.1</text>
<polygon points="543.4,218.9 553.7,216.7 563.9,214.6 574.2,212.5 584.4,210.3 594.7,208.2 604.9,206.0 615.2,203.9 625.4,201.7 635.7,199.6 645.9,197.5 656.2,195.3 666.4,193.2 666.4,182.7 656.2,185.7 645.9,188.7 635.7,191.7 625.4,194.8 615.2,197.8 604.9,200.8 594.7,203.8 584.4,206.8 574.2,209.8 563.9,212.8 553.7,215.9 543.4,218.9" fill="#2e7dd7" fill-opacity="0.12" stroke="none"/>
<polyline points="543.4,218.9 553.7,216.3 563.9,213.7 574.2,211.1 584.4,208.6 594.7,206.0 604.9,203.4 615.2,200.8 625.4,198.2 635.7,195.7 645.9,193.1 656.2,190.5 666.4,187.9" fill="none" stroke="#2e7dd7" stroke-width="1.5" stroke-dasharray="5,3"/>
<polyline points="386.3,248.0 393.1,246.9 399.9,248.0 406.8,247.4 413.6,246.9 420.4,249.0 427.3,246.4 434.1,248.0 440.9,245.3 447.8,243.7 454.6,245.3 461.4,240.6 468.3,240.6 475.1,238.4 481.9,236.9 488.8,234.7 495.6,231.6 502.4,227.3 509.3,227.9 516.1,225.2 522.9,223.1 529.8,221.5 536.6,218.3 543.4,218.9" fill="none" stroke="#1a1a1a" stroke-width="2"/>
<circle cx="543.4" cy="218.9" r="3.5" fill="#1a1a1a"/>
<text x="549.4" y="212.9" fill="#1a1a1a">2.29m</text>
<rect x="63" y="28" width="280" height="82" fill="#ffffff" fill-opacity="0.9" stroke="#ccc"/>
<text x="69" y="42" fill="#333" font-weight="bold">到達予想</text>
<text x="69" y="57" fill="#888">水防団待機水位: 3時間以内は未達予定(ピーク2.97m)</text>
<text x="69" y="72" fill="#888">氾濫注意水位: 3時間以内は未達予定(ピーク2.97m)</text>
<text x="69" y="87" fill="#888">避難判断水位: 3時間以内は未達予定(ピーク2.97m)</text>
<text x="69" y="102" fill="#888">氾濫危険水位: 3時間以内は未達予定(ピーク2.97m)</text>
<text x="55" y="374" fill="#666">実線: 実測水位　破線+帯: 予想（不確実性幅、降雨予報:Open-Meteo https://open-meteo.com/）　凡例の水平線: 警戒水位</text>
</svg>