<svg xmlns="http://www.w3.org/2000/svg" viewBox="0 0 760 380" font-family="sans-serif" font-size="11">
<rect x="0" y="0" width="760" height="380" fill="#ffffff"/>
<rect x="55" y="20" width="615" height="320" fill="none" stroke="#ccc"/>
<line x1="55" y1="128.4" x2="670" y2="128.4" stroke="#c9a227" stroke-dasharray="4,3" stroke-width="1"/>
<text x="675" y="131.4" fill="#c9a227">水防団待機水位 4.00m</text>
<line x1="55" y1="102.0" x2="670" y2="102.0" stroke="#e08a1e" stroke-dasharray="4,3" stroke-width="1"/>
<text x="675" y="105.0" fill="#e08a1e">氾濫注意水位 4.50m</text>
<line x1="55" y1="65.0" x2="670" y2="65.0" stroke="#d94f2b" stroke-dasharray="4,3" stroke-width="1"/>
<text x="675" y="68.0" fill="#d94f2b">避難判断水位 5.20m</text>
<line x1="55" y1="41.2" x2="670" y2="41.2" stroke="#c0392b" stroke-dasharray="4,3" stroke-width="1"/>
<text x="675" y="44.2" fill="#c0392b">氾濫危険水位 5.65m</text>
<line x1="547.0" y1="20" x2="547.0" y2="340" stroke="#888" stroke-dasharray="2,3" stroke-width="1"/>
<text x="550.0" y="32" fill="#888">現在</text>
<line x1="55.0" y1="340" x2="55.0" y2="344" stroke="#666"/>
<text x="55.0" y="356" text-anchor="middle" fill="#333">09/23 11:27</text>
<line x1="157.5" y1="340" x2="157.5" y2="344" stroke="#666"/>
<text x="157.5" y="356" text-anchor="middle" fill="#333">09/23 13:57</text>
<line x1="260.0" y1="340" x2="260.0" y2="344" stroke="#666"/>
<text x="260.0" y="356" text-anchor="middle" fill="#333">09/23 16:27</text>
<line x1="362.5" y1="340" x2="362.5" y2="344" stroke="#666"/>
<text x="362.5" y="356" text-anchor="middle" fill="#333">09/23 18:57</text>
<line x1="465.0" y1="340" x2="465.0" y2="344" stroke="#666"/>
<text x="465.0" y="356" text-anchor="middle" fill="#333">09/23 21:27</text>
<line x1="567.5" y1="340" x2="567.5" y2="344" stroke="#666"/>
<text x="567.5" y="356" text-anchor="middle" fill="#333">09/23 23:57</text>
<line x1="670.0" y1="340" x2="670.0" y2="344" stroke="#666"/>
<text x="670.0" y="356" text-anchor="middle" fill="#333">09/24 02:27</text>
<line x1="51" y1="340.0" x2="55" y2="340.0" stroke="#666"/>
<text x="47" y="343.0" text-anchor="end" fill="#333">0.0</text>
<line x1="51" y1="276.0" x2="55" y2="276.0" stroke="#666"/>
<text x="47" y="279.0" text-anchor="end" fill="#333">1.2</text>
<line x1="51" y1="212.0" x2="55" y2="212.0" stroke="#666"/>
<text x="47" y="215.0" text-anchor="end" fill="#333">2.4</text>
<line x1="51" y1="148.0" x2="55" y2="148.0" stroke="#666"/>
<text x="47" y="151.0" text-anchor="end" fill="#333">3.6</text>
<line x1="51" y1="84.0" x2="55" y2="84.0" stroke="#666"/>
<text x="47" y="87.0" text-anchor="end" fill="#333">4.8</text>
<line x1="51" y1="20.0" x2="55" y2="20.0" stroke="#666"/>
<text x="47" y="23.0" text-anchor="end" fill="#333">6.1</text>
<polygon points="541.9,226.3 552.1,225.0 562.4,223.7 572.6,222.4 582.9,221.1 593.1,219.8 603.4,218.5 613.6,217.2 623.9,215.9 634.1,214.7 644.4,213.4 654.6,212.1 664.9,210.8 664.9,207.8 654.6,209.3 644.4,210.9 634.1,212.4 623.9,213.9 613.6,215.5 603.4,217.0 593.1,218.6 582.9,220.1 572.6,221.7 562.4,223.2 552.1,224.7 541.9,226.3" fill="#2e7dd7" fill-opacity="0.12" stroke="none"/>
<polyline points="541.9,226.3 552.1,224.9 562.4,223.4 572.6,222.0 582.9,220.6 593.1,219.2 603.4,217.8 613.6,216.4 623.9,214.9 634.1,213.5 644.4,212.1 654.6,210.7 664.9,209.3" fill="none" stroke="#2e7dd7" stroke-width="1.5" stroke-dasharray="5,3"/>
<polyline points="384.7,225.8 391.5,227.3 398.4,228.4 405.2,228.9 412.0,229.5 418.9,230.5 425.7,231.0 432.5,231.6 439.4,232.1 446.2,233.7 453.0,232.6 459.9,233.2 466.7,232.6 473.5,233.2 480.4,232.6 487.2,233.2 494.0,232.1 500.9,231.6 507.7,231.0 514.5,230.0 521.4,228.4 528.2,227.9 535.0,226.8 541.9,226.3" fill="none" stroke="#1a1a1a" stroke-width="2"/>
<circle cx="541.9" cy="226.3" r="3.5" fill="#1a1a1a"/>
<text x="547.9" y="220.3" fill="#1a1a1a">2.15m</text>
<rect x="63" y="28" width="280" height="82" fill="#ffffff" fill-opacity="0.9" stroke="#ccc"/>
<text x="69" y="42" fill="#333" font-weight="bold">到達予想</text>
<text x="69" y="57" fill="#888">水防団待機水位: 3時間以内は未達予定(ピーク2.50m)</text>
<text x="69" y="72" fill="#888">氾濫注意水位: 3時間以内は未達予定(ピーク2.50m)</text>
<text x="69" y="87" fill="#888">避難判断水位: 3時間以内は未達予定(ピーク2.50m)</text>
<text x="69" y="102" fill="#888">氾濫危険水位: 3時間以内は未達予定(ピーク2.50m)</text>
<text x="55" y="374" fill="#666">実線: 実測水位　破線+帯: 予想（不確実性幅、降雨予報:Open-Meteo https://open-meteo.com/）　凡例の水平線: 警戒水位</text>
</svg>