<svg xmlns="http://www.w3.org/2000/svg" viewBox="0 0 760 380" font-family="sans-serif" font-size="11">
<rect x="0" y="0" width="760" height="380" fill="#ffffff"/>
<rect x="55" y="20" width="615" height="320" fill="none" stroke="#ccc"/>
<line x1="55" y1="128.4" x2="670" y2="128.4" stroke="#c9a227" stroke-dasharray="4,3" stroke-width="1"/>
<text x="675" y="131.4" fill="#c9a227">水防団待機水位 4.00m</text>
<line x1="55" y1="102.0" x2="670" y2="102.0" stroke="#e08a1e" stroke-dasharray="4,3" stroke-width="1"/>
<text x="675" y="105.0" fill="#e08a1e">氾濫注意水位 4.50m</text>
<line x1="55" y1="65.0" x2="670" y2="65.0" stroke="#d94f2b" stroke-dasharray="4,3" stroke-width="1"/>
<text x="675" y="68.0" fill="#d94f2b">避難判断水位 5.20m</text>
<line x1="55" y1="41.2" x2="670" y2="41.2" stroke="#c0392b" stroke-dasharray="4,3" stroke-width="1"/>
<text x="675" y="44.2" fill="#c0392b">氾濫危険水位 5.65m</text>
<line x1="547.0" y1="20" x2="547.0" y2="340" stroke="#888" stroke-dasharray="2,3" stroke-width="1"/>
<text x="550.0" y="32" fill="#888">現在</text>
<line x1="55.0" y1="340" x2="55.0" y2="344" stroke="#666"/>
<text x="55.0" y="356" text-anchor="middle" fill="#333">10/02 16:05</text>
<line x1="157.5" y1="340" x2="157.5" y2="344" stroke="#666"/>
<text x="157.5" y="356" text-anchor="middle" fill="#333">10/02 18:35</text>
<line x1="260.0" y1="340" x2="260.0" y2="344" stroke="#666"/>
<text x="260.0" y="356" text-anchor="middle" fill="#333">10/02 21:05</text>
<line x1="362.5" y1="340" x2="362.5" y2="344" stroke="#666"/>
<text x="362.5" y="356" text-anchor="middle" fill="#333">10/02 23:35</text>
<line x1="465.0" y1="340" x2="465.0" y2="344" stroke="#666"/>
<text x="465.0" y="356" text-anchor="middle" fill="#333">10/03 02:05</text>
<line x1="567.5" y1="340" x2="567.5" y2="344" stroke="#666"/>
<text x="567.5" y="356" text-anchor="middle" fill="#333">10/03 04:35</text>
<line x1="670.0" y1="340" x2="670.0" y2="344" stroke="#666"/>
<text x="670.0" y="356" text-anchor="middle" fill="#333">10/03 07:05</text>
<line x1="51" y1="340.0" x2="55" y2="340.0" stroke="#666"/>
<text x="47" y="343.0" text-anchor="end" fill="#333">0.0</text>
<line x1="51" y1="276.0" x2="55" y2="276.0" stroke="#666"/>
<text x="47" y="279.0" text-anchor="end" fill="#333">1.2</text>
<line x1="51" y1="212.0" x2="55" y2="212.0" stroke="#666"/>
<text x="47" y="215.0" text-anchor="end" fill="#333">2.4</text>
<line x1="51" y1="148.0" x2="55" y2="148.0" stroke="#666"/>
<text x="47" y="151.0" text-anchor="end" fill="#333">3.6</text>
<line x1="51" y1="84.0" x2="55" y2="84.0" stroke="#666"/>
<text x="47" y="87.0" text-anchor="end" fill="#333">4.8</text>
<line x1="51" y1="20.0" x2="55" y2="20.0" stroke="#666"/>
<text x="47" y="23.0" text-anchor="end" fill="#333">6.1</text>
<polygon points="536.4,260.7 546.6,260.2 556.9,259.7 567.1,259.2 577.4,258.8 587.6,258.3 597.9,257.8 608.1,257.3 618.4,256.8 628.6,256.4 638.9,255.9 649.1,255.4 659.4,254.9 659.4,251.4 649.1,252.2 638.9,253.0 628.6,253.7 618.4,254.5 608.1,255.3 597.9,256.0 587.6,256.8 577.4,257.6 567.1,258.4 556.9,259.1 546.6,259.9 536.4,260.7" fill="#2e7dd7" fill-opacity="0.12" stroke="none"/>
<polyline points="536.4,260.7 546.6,260.0 556.9,259.4 567.1,258.8 577.4,258.2 587.6,257.5 597.9,256.9 608.1,256.3 618.4,255.7 628.6,255.1 638.9,254.4 649.1,253.8 659.4,253.2" fill="none" stroke="#2e7dd7" stroke-width="1.5" stroke-dasharray="5,3"/>
<polyline points="379.2,243.2 386.0,244.3 392.9,245.9 399.7,249.0 406.5,249.6 413.4,252.2 420.2,252.2 427.0,254.8 433.9,254.8 440.7,257.5 447.5,258.5 454.4,259.1 461.2,259.6 468.0,258.5 474.9,263.3 481.7,262.2 488.5,263.3 495.4,263.3 502.2,262.8 509.0,262.8 515.9,261.7 522.7,262.2 529.5,261.2 536.4,260.7" fill="none" stroke="#1a1a1a" stroke-width="2"/>
<circle cx="536.4" cy="260.7" r="3.5" fill="#1a1a1a"/>
<text x="542.4" y="254.7" fill="#1a1a1a">1.50m</text>
<rect x="63" y="28" width="280" height="82" fill="#ffffff" fill-opacity="0.9" stroke="#ccc"/>
<text x="69" y="42" fill="#333" font-weight="bold">到達予想</text>
<text x="69" y="57" fill="#888">水防団待機水位: 3時間以内は未達予定(ピーク1.67m)</text>
<text x="69" y="72" fill="#888">氾濫注意水位: 3時間以内は未達予定(ピーク1.67m)</text>
<text x="69" y="87" fill="#888">避難判断水位: 3時間以内は未達予定(ピーク1.67m)</text>
<text x="69" y="102" fill="#888">氾濫危険水位: 3時間以内は未達予定(ピーク1.67m)</text>
<text x="55" y="374" fill="#666">実線: 実測水位　破線+帯: 予想（不確実性幅、降雨予報:Open-Meteo https://open-meteo.com/）　凡例の水平線: 警戒水位</text>
</svg>